<svg xmlns="http://www.w3.org/2000/svg" viewBox="0 0 1200 675" role="img" aria-labelledby="title desc">
<title id="title">Infinitour</title><desc id="desc">Capa editorial: Conexões para descobrir novos caminhos.</desc>
<defs><pattern id="grid" width="60" height="60" patternUnits="userSpaceOnUse"><path d="M60 0H0V60" fill="none" stroke="#8cf1eb" stroke-opacity=".06"/></pattern></defs>
<rect width="1200" height="675" fill="#123b40"/><rect width="1200" height="675" fill="url(#grid)"/>
<circle cx="1020" cy="260" r="310" fill="#8cf1eb" opacity=".04"/>
<circle cx="930" cy="295" r="220" fill="none" stroke="#8cf1eb" stroke-opacity=".13"/>
<path d="M64 160H145" stroke="#8cf1eb" stroke-width="5"/>
<text x="64" y="207" fill="#8cf1eb" font-family="Arial,sans-serif" font-size="20" letter-spacing="3">TURISMO / EXPERIÊNCIAS</text>
<text x="60" y="315" fill="#fff" font-family="Arial,sans-serif" font-size="88" font-weight="700" letter-spacing="-2">Infinitour</text>
<text x="64" y="390" fill="#8cf1eb" font-family="Arial,sans-serif" font-size="27">Conexões para descobrir novos caminhos.</text>
<g transform="translate(790 185) scale(1.25)" fill="none" stroke="#8cf1eb" stroke-width="5" stroke-linecap="round" stroke-linejoin="round"><circle cx="120" cy="120" r="95"/><path d="M160 65L140 140L65 165L85 85ZM85 85L140 140"/><path d="M120 5V20M120 220V235M5 120H20M220 120H235"/></g>
<path d="M64 520H1136" stroke="#8cf1eb" stroke-opacity=".2"/>
<text x="64" y="563" fill="#fff" fill-opacity=".65" font-family="Arial,sans-serif" font-size="19" letter-spacing="2">BEATRIZ KAROLINE / MEUS PROJETOS</text>
<text x="1136" y="563" text-anchor="end" fill="#8cf1eb" font-family="Arial,sans-serif" font-size="19">11</text>
</svg>