<svg xmlns="http://www.w3.org/2000/svg" viewBox="0 0 1200 675" role="img" aria-labelledby="title desc">
<title id="title">VIGA</title><desc id="desc">Capa editorial: Dar voz. Criar visibilidade.</desc>
<defs><pattern id="grid" width="60" height="60" patternUnits="userSpaceOnUse"><path d="M60 0H0V60" fill="none" stroke="#ffadd4" stroke-opacity=".06"/></pattern></defs>
<rect width="1200" height="675" fill="#402239"/><rect width="1200" height="675" fill="url(#grid)"/>
<circle cx="1020" cy="260" r="310" fill="#ffadd4" opacity=".04"/>
<circle cx="930" cy="295" r="220" fill="none" stroke="#ffadd4" stroke-opacity=".13"/>
<path d="M64 160H145" stroke="#ffadd4" stroke-width="5"/>
<text x="64" y="207" fill="#ffadd4" font-family="Arial,sans-serif" font-size="20" letter-spacing="3">VISIBILIDADE / IMPACTO SOCIAL</text>
<text x="60" y="315" fill="#fff" font-family="Arial,sans-serif" font-size="88" font-weight="700" letter-spacing="-2">VIGA</text>
<text x="64" y="390" fill="#ffadd4" font-family="Arial,sans-serif" font-size="27">Dar voz. Criar visibilidade.</text>
<g transform="translate(790 185) scale(1.25)" fill="none" stroke="#ffadd4" stroke-width="5" stroke-linecap="round" stroke-linejoin="round"><path d="M40 100L190 40V185L40 145ZM40 100H20V145H40M65 155L90 215H120L95 155M215 70L240 55M215 115H240M215 155L240 170"/></g>
<path d="M64 520H1136" stroke="#ffadd4" stroke-opacity=".2"/>
<text x="64" y="563" fill="#fff" fill-opacity=".65" font-family="Arial,sans-serif" font-size="19" letter-spacing="2">BEATRIZ KAROLINE / MEUS PROJETOS</text>
<text x="1136" y="563" text-anchor="end" fill="#ffadd4" font-family="Arial,sans-serif" font-size="19">12</text>
</svg>